<svg width="82" height="83" viewBox="0 0 82 83" fill="none" xmlns="http://www.w3.org/2000/svg">
<path d="M82 41C82 18.3557 63.6443 0 41 0C18.3557 0 0 18.3557 0 41C0 47.7363 1.6277 54.243 4.6945 60.065L0.1189 77.654C-0.0332809 78.2414 -0.0294339 78.8584 0.130061 79.4439C0.289557 80.0294 0.599171 80.5631 1.02827 80.9922C1.45736 81.4213 1.99107 81.7309 2.57656 81.8904C3.16206 82.0499 3.77906 82.0538 4.3665 81.9016L21.9555 77.3219C27.8294 80.405 34.3661 82.0107 41 82C63.6443 82 82 63.6443 82 41ZM41 24.6C43.1748 24.6 45.2605 25.4639 46.7983 27.0017C48.3361 28.5395 49.2 30.6252 49.2 32.8V49.2C49.2 51.3748 48.3361 53.4605 46.7983 54.9983C45.2605 56.5361 43.1748 57.4 41 57.4H28.7C26.5252 57.4 24.4395 56.5361 22.9017 54.9983C21.3639 53.4605 20.5 51.3748 20.5 49.2V32.8C20.5 30.6252 21.3639 28.5395 22.9017 27.0017C24.4395 25.4639 26.5252 24.6 28.7 24.6H41ZM53.3 45.7642V36.2358L60.4094 29.5036C60.8459 29.0898 61.3941 28.8131 61.9863 28.7077C62.5784 28.6023 63.1884 28.6729 63.7409 28.9108C64.2933 29.1486 64.7639 29.5432 65.0943 30.0457C65.4248 30.5482 65.6006 31.1367 65.6 31.7381V50.2619C65.6006 50.8633 65.4248 51.4518 65.0943 51.9543C64.7639 52.4568 64.2933 52.8514 63.7409 53.0892C63.1884 53.3271 62.5784 53.3977 61.9863 53.2923C61.3941 53.1869 60.8459 52.9102 60.4094 52.4964L53.3 45.7642Z" fill="white"/>
</svg>
